<svg xmlns="http://www.w3.org/2000/svg" xmlns:xlink="http://www.w3.org/1999/xlink" viewBox="0 0 360 640"><defs><style>.cls-1{fill:url(#linear-gradient);}.cls-2{opacity:0.15;}.cls-3{fill:#a2dbe4;}</style><linearGradient id="linear-gradient" x1="180" y1="640" x2="180" gradientUnits="userSpaceOnUse"><stop offset="0.04" stop-color="#0658a8" stop-opacity="0.95"/><stop offset="0.1" stop-color="#2076bb" stop-opacity="0.96"/><stop offset="0.17" stop-color="#3a96ce" stop-opacity="0.97"/><stop offset="0.25" stop-color="#4fafde" stop-opacity="0.97"/><stop offset="0.34" stop-color="#5ec0e8" stop-opacity="0.98"/><stop offset="0.43" stop-color="#67cbef" stop-opacity="0.98"/><stop offset="0.53" stop-color="#6acef1" stop-opacity="0.98"/><stop offset="0.6" stop-color="#66c9ec" stop-opacity="0.98"/><stop offset="0.69" stop-color="#5ab9dc" stop-opacity="0.98"/><stop offset="0.78" stop-color="#479fc3" stop-opacity="0.99"/><stop offset="0.88" stop-color="#2b7b9f" stop-opacity="0.99"/><stop offset="0.98" stop-color="#094e72"/><stop offset="1" stop-color="#03466a"/><stop offset="1" stop-color="#073250" stop-opacity="0.98"/><stop offset="1" stop-color="#0a213b" stop-opacity="0.96"/><stop offset="1" stop-color="#0b172d" stop-opacity="0.94"/><stop offset="1" stop-color="#0c1329" stop-opacity="0.94"/></linearGradient></defs><title>splashScreen</title><g id="Layer_5" data-name="Layer 5"><rect class="cls-1" width="360" height="640"/><g class="cls-2"><path class="cls-3" d="M86.15,572.69v61.93a9.6,9.6,0,0,1-.66,3.57,8.61,8.61,0,0,1-1,1.81H99.6a21.92,21.92,0,0,0,.58-5.46V572.69ZM68,634.87v-38H54V635a24,24,0,0,0,.61,5H69.64A8.52,8.52,0,0,1,68,634.87Z"/><polygon class="cls-3" points="93.33 558 80.29 580.59 106.37 580.59 93.33 558"/><path class="cls-3" d="M17.72,634.87v-38h-14V635a24,24,0,0,0,.62,5H19.38A8.52,8.52,0,0,1,17.72,634.87Zm18.17-62.18v61.93a9.41,9.41,0,0,1-.67,3.57,8.58,8.58,0,0,1-1,1.81h15.1a21,21,0,0,0,.58-5.46V572.69Z"/><polygon class="cls-3" points="43.06 558 30.03 580.59 56.1 580.59 43.06 558"/><path class="cls-3" d="M186.68,572.69v61.93a9.6,9.6,0,0,1-.66,3.57,8.61,8.61,0,0,1-1,1.81h15.1a21,21,0,0,0,.58-5.46V572.69Zm-18.17,62.18v-38h-14V635a24,24,0,0,0,.62,5h15.07A8.52,8.52,0,0,1,168.51,634.87Z"/><polygon class="cls-3" points="193.86 558 180.82 580.59 206.9 580.59 193.86 558"/><path class="cls-3" d="M118.24,634.87v-38h-14V635a23.34,23.34,0,0,0,.62,5H119.9A8.59,8.59,0,0,1,118.24,634.87Zm18.18-62.18v61.93a9.6,9.6,0,0,1-.67,3.57,8.19,8.19,0,0,1-1,1.81h15.12a22.4,22.4,0,0,0,.57-5.46V572.69Z"/><polygon class="cls-3" points="143.59 558 130.55 580.59 156.63 580.59 143.59 558"/><path class="cls-3" d="M287.21,572.69v61.93a9.6,9.6,0,0,1-.66,3.57,8.61,8.61,0,0,1-1,1.81h15.1a21,21,0,0,0,.58-5.46V572.69ZM269,634.87v-38H255V635a24,24,0,0,0,.62,5H270.7A8.52,8.52,0,0,1,269,634.87Z"/><polygon class="cls-3" points="294.39 558 281.35 580.59 307.43 580.59 294.39 558"/><path class="cls-3" d="M218.77,634.87v-38h-14V635a23.34,23.34,0,0,0,.62,5h15.07A8.53,8.53,0,0,1,218.77,634.87Zm18.17-62.18v61.93a9.6,9.6,0,0,1-.66,3.57,8.19,8.19,0,0,1-1,1.81H250.4a22.4,22.4,0,0,0,.57-5.46V572.69Z"/><polygon class="cls-3" points="244.12 558 231.08 580.59 257.16 580.59 244.12 558"/><path class="cls-3" d="M319.3,634.87v-38h-14V635a24,24,0,0,0,.61,5H321A8.52,8.52,0,0,1,319.3,634.87Zm18.17-62.18v61.93a9.6,9.6,0,0,1-.66,3.57,8.19,8.19,0,0,1-1,1.81h15.12a22.4,22.4,0,0,0,.57-5.46V572.69Z"/><polygon class="cls-3" points="344.65 558 331.61 580.59 357.69 580.59 344.65 558"/><path class="cls-3" d="M86.15,472.69v61.93a9.6,9.6,0,0,1-.66,3.57,8.72,8.72,0,0,1-1.91,2.9,9.6,9.6,0,0,1-2.9,2,8.39,8.39,0,0,1-3.49.75,9.14,9.14,0,0,1-6.47-2.57A8.76,8.76,0,0,1,68,534.87v-38H54V535a23.21,23.21,0,0,0,1.86,8.88,23.63,23.63,0,0,0,5.11,7.47,22.92,22.92,0,0,0,16.18,6.55h.25a22.52,22.52,0,0,0,8.92-2,23.59,23.59,0,0,0,7.3-5,23.3,23.3,0,0,0,4.89-7.38,21.91,21.91,0,0,0,1.71-9V472.69Z"/><polygon class="cls-3" points="93.33 458 80.29 480.58 106.37 480.58 93.33 458"/><path class="cls-3" d="M35.89,472.69v61.93a9.41,9.41,0,0,1-.67,3.57,8.54,8.54,0,0,1-1.9,2.9,9.52,9.52,0,0,1-2.91,2,8.38,8.38,0,0,1-3.48.75,9.18,9.18,0,0,1-6.48-2.57,8.79,8.79,0,0,1-2.73-6.39v-38h-14V535a23.4,23.4,0,0,0,1.87,8.88,23.76,23.76,0,0,0,5.1,7.47,23,23,0,0,0,16.18,6.55h.25a22.48,22.48,0,0,0,8.92-2,23.47,23.47,0,0,0,7.3-5,23.16,23.16,0,0,0,4.9-7.38,21.74,21.74,0,0,0,1.7-9V472.69Z"/><polygon class="cls-3" points="43.06 458 30.03 480.58 56.1 480.58 43.06 458"/><path class="cls-3" d="M186.68,472.69v61.93a9.6,9.6,0,0,1-.66,3.57,8.72,8.72,0,0,1-1.91,2.9,9.52,9.52,0,0,1-2.91,2,8.35,8.35,0,0,1-3.48.75,9.14,9.14,0,0,1-6.47-2.57,8.76,8.76,0,0,1-2.74-6.39v-38h-14V535a23.4,23.4,0,0,0,1.87,8.88,23.76,23.76,0,0,0,5.1,7.47,23,23,0,0,0,16.19,6.55h.24a22.53,22.53,0,0,0,8.93-2,23.59,23.59,0,0,0,7.3-5A23.3,23.3,0,0,0,199,543.5a21.74,21.74,0,0,0,1.7-9V472.69Z"/><polygon class="cls-3" points="193.86 458 180.82 480.58 206.9 480.58 193.86 458"/><path class="cls-3" d="M136.42,472.69v61.93a9.6,9.6,0,0,1-.67,3.57,8.56,8.56,0,0,1-1.91,2.9,9.48,9.48,0,0,1-2.9,2,8.39,8.39,0,0,1-3.49.75,9.17,9.17,0,0,1-6.47-2.57,8.8,8.8,0,0,1-2.74-6.39v-38h-14V535a23.21,23.21,0,0,0,1.87,8.88,23.76,23.76,0,0,0,5.1,7.47,23,23,0,0,0,16.18,6.55h.25a22.48,22.48,0,0,0,8.92-2,23.47,23.47,0,0,0,7.3-5,23.16,23.16,0,0,0,4.9-7.38,21.9,21.9,0,0,0,1.7-9V472.69Z"/><polygon class="cls-3" points="143.59 458 130.55 480.58 156.63 480.58 143.59 458"/><path class="cls-3" d="M287.21,472.69v61.93a9.6,9.6,0,0,1-.66,3.57,8.72,8.72,0,0,1-1.91,2.9,9.52,9.52,0,0,1-2.91,2,8.35,8.35,0,0,1-3.48.75,9.14,9.14,0,0,1-6.47-2.57,8.76,8.76,0,0,1-2.74-6.39v-38H255V535a23.4,23.4,0,0,0,1.87,8.88,23.76,23.76,0,0,0,5.1,7.47,23,23,0,0,0,16.18,6.55h.25a22.44,22.44,0,0,0,8.92-2,23.23,23.23,0,0,0,12.2-12.4,21.74,21.74,0,0,0,1.7-9V472.69Z"/><polygon class="cls-3" points="294.39 458 281.35 480.58 307.43 480.58 294.39 458"/><path class="cls-3" d="M236.94,472.69v61.93a9.6,9.6,0,0,1-.66,3.57,8.56,8.56,0,0,1-1.91,2.9,9.6,9.6,0,0,1-2.9,2,8.39,8.39,0,0,1-3.49.75,9.16,9.16,0,0,1-6.47-2.57,8.8,8.8,0,0,1-2.74-6.39v-38h-14V535a23.21,23.21,0,0,0,1.87,8.88,23.6,23.6,0,0,0,5.1,7.47,22.92,22.92,0,0,0,16.18,6.55h.25a22.48,22.48,0,0,0,8.92-2,23.47,23.47,0,0,0,7.3-5,23.16,23.16,0,0,0,4.9-7.38,21.9,21.9,0,0,0,1.7-9V472.69Z"/><polygon class="cls-3" points="244.12 458 231.08 480.58 257.16 480.58 244.12 458"/><path class="cls-3" d="M337.47,472.69v61.93a9.6,9.6,0,0,1-.66,3.57,8.56,8.56,0,0,1-1.91,2.9,9.6,9.6,0,0,1-2.9,2,8.39,8.39,0,0,1-3.49.75,9.16,9.16,0,0,1-6.47-2.57,8.76,8.76,0,0,1-2.74-6.39v-38h-14V535a23.21,23.21,0,0,0,1.86,8.88,23.63,23.63,0,0,0,5.11,7.47,22.92,22.92,0,0,0,16.18,6.55h.25a22.52,22.52,0,0,0,8.92-2,23.47,23.47,0,0,0,7.3-5,23.16,23.16,0,0,0,4.9-7.38,21.9,21.9,0,0,0,1.7-9V472.69Z"/><polygon class="cls-3" points="344.65 458 331.61 480.58 357.69 480.58 344.65 458"/><path class="cls-3" d="M86.15,372.69v61.93a9.6,9.6,0,0,1-.66,3.57,8.72,8.72,0,0,1-1.91,2.9,9.6,9.6,0,0,1-2.9,2,8.39,8.39,0,0,1-3.49.75,9.14,9.14,0,0,1-6.47-2.57A8.76,8.76,0,0,1,68,434.87v-38H54V435a23.21,23.21,0,0,0,1.86,8.88,23.63,23.63,0,0,0,5.11,7.47,22.92,22.92,0,0,0,16.18,6.55h.25a22.52,22.52,0,0,0,8.92-2,23.59,23.59,0,0,0,7.3-5,23.3,23.3,0,0,0,4.89-7.38,21.91,21.91,0,0,0,1.71-9V372.69Z"/><polygon class="cls-3" points="93.33 358 80.29 380.58 106.37 380.58 93.33 358"/><path class="cls-3" d="M35.89,372.69v61.93a9.41,9.41,0,0,1-.67,3.57,8.54,8.54,0,0,1-1.9,2.9,9.52,9.52,0,0,1-2.91,2,8.38,8.38,0,0,1-3.48.75,9.18,9.18,0,0,1-6.48-2.57,8.79,8.79,0,0,1-2.73-6.39v-38h-14V435a23.4,23.4,0,0,0,1.87,8.88,23.76,23.76,0,0,0,5.1,7.47,23,23,0,0,0,16.18,6.55h.25a22.48,22.48,0,0,0,8.92-2,23.47,23.47,0,0,0,7.3-5,23.16,23.16,0,0,0,4.9-7.38,21.74,21.74,0,0,0,1.7-9V372.69Z"/><polygon class="cls-3" points="43.06 358 30.03 380.58 56.1 380.58 43.06 358"/><path class="cls-3" d="M186.68,372.69v61.93a9.6,9.6,0,0,1-.66,3.57,8.72,8.72,0,0,1-1.91,2.9,9.52,9.52,0,0,1-2.91,2,8.35,8.35,0,0,1-3.48.75,9.14,9.14,0,0,1-6.47-2.57,8.76,8.76,0,0,1-2.74-6.39v-38h-14V435a23.4,23.4,0,0,0,1.87,8.88,23.76,23.76,0,0,0,5.1,7.47,23,23,0,0,0,16.19,6.55h.24a22.53,22.53,0,0,0,8.93-2,23.59,23.59,0,0,0,7.3-5A23.3,23.3,0,0,0,199,443.5a21.74,21.74,0,0,0,1.7-9V372.69Z"/><polygon class="cls-3" points="193.86 358 180.82 380.58 206.9 380.58 193.86 358"/><path class="cls-3" d="M136.42,372.69v61.93a9.6,9.6,0,0,1-.67,3.57,8.56,8.56,0,0,1-1.91,2.9,9.48,9.48,0,0,1-2.9,2,8.39,8.39,0,0,1-3.49.75,9.17,9.17,0,0,1-6.47-2.57,8.8,8.8,0,0,1-2.74-6.39v-38h-14V435a23.21,23.21,0,0,0,1.87,8.88,23.76,23.76,0,0,0,5.1,7.47,23,23,0,0,0,16.18,6.55h.25a22.48,22.48,0,0,0,8.92-2,23.47,23.47,0,0,0,7.3-5,23.16,23.16,0,0,0,4.9-7.38,21.9,21.9,0,0,0,1.7-9V372.69Z"/><polygon class="cls-3" points="143.59 358 130.55 380.58 156.63 380.58 143.59 358"/><path class="cls-3" d="M287.21,372.69v61.93a9.6,9.6,0,0,1-.66,3.57,8.72,8.72,0,0,1-1.91,2.9,9.52,9.52,0,0,1-2.91,2,8.35,8.35,0,0,1-3.48.75,9.14,9.14,0,0,1-6.47-2.57,8.76,8.76,0,0,1-2.74-6.39v-38H255V435a23.4,23.4,0,0,0,1.87,8.88,23.76,23.76,0,0,0,5.1,7.47,23,23,0,0,0,16.18,6.55h.25a22.44,22.44,0,0,0,8.92-2,23.23,23.23,0,0,0,12.2-12.4,21.74,21.74,0,0,0,1.7-9V372.69Z"/><polygon class="cls-3" points="294.39 358 281.35 380.58 307.43 380.58 294.39 358"/><path class="cls-3" d="M236.94,372.69v61.93a9.6,9.6,0,0,1-.66,3.57,8.56,8.56,0,0,1-1.91,2.9,9.6,9.6,0,0,1-2.9,2,8.39,8.39,0,0,1-3.49.75,9.16,9.16,0,0,1-6.47-2.57,8.8,8.8,0,0,1-2.74-6.39v-38h-14V435a23.21,23.21,0,0,0,1.87,8.88,23.6,23.6,0,0,0,5.1,7.47,22.92,22.92,0,0,0,16.18,6.55h.25a22.48,22.48,0,0,0,8.92-2,23.47,23.47,0,0,0,7.3-5,23.16,23.16,0,0,0,4.9-7.38,21.9,21.9,0,0,0,1.7-9V372.69Z"/><polygon class="cls-3" points="244.12 358 231.08 380.58 257.16 380.58 244.12 358"/><path class="cls-3" d="M337.47,372.69v61.93a9.6,9.6,0,0,1-.66,3.57,8.56,8.56,0,0,1-1.91,2.9,9.6,9.6,0,0,1-2.9,2,8.39,8.39,0,0,1-3.49.75,9.16,9.16,0,0,1-6.47-2.57,8.76,8.76,0,0,1-2.74-6.39v-38h-14V435a23.21,23.21,0,0,0,1.86,8.88,23.63,23.63,0,0,0,5.11,7.47,22.92,22.92,0,0,0,16.18,6.55h.25a22.52,22.52,0,0,0,8.92-2,23.47,23.47,0,0,0,7.3-5,23.16,23.16,0,0,0,4.9-7.38,21.9,21.9,0,0,0,1.7-9V372.69Z"/><polygon class="cls-3" points="344.65 358 331.61 380.58 357.69 380.58 344.65 358"/><path class="cls-3" d="M86.15,272.69v61.93a9.6,9.6,0,0,1-.66,3.57,8.72,8.72,0,0,1-1.91,2.9,9.6,9.6,0,0,1-2.9,2,8.39,8.39,0,0,1-3.49.75,9.14,9.14,0,0,1-6.47-2.57A8.76,8.76,0,0,1,68,334.87v-38H54V335a23.21,23.21,0,0,0,1.86,8.88,23.63,23.63,0,0,0,5.11,7.47,22.92,22.92,0,0,0,16.18,6.55h.25a22.52,22.52,0,0,0,8.92-2,23.59,23.59,0,0,0,7.3-5,23.3,23.3,0,0,0,4.89-7.38,21.91,21.91,0,0,0,1.71-9V272.69Z"/><polygon class="cls-3" points="93.33 258 80.29 280.58 106.37 280.58 93.33 258"/><path class="cls-3" d="M35.89,272.69v61.93a9.41,9.41,0,0,1-.67,3.57,8.54,8.54,0,0,1-1.9,2.9,9.52,9.52,0,0,1-2.91,2,8.38,8.38,0,0,1-3.48.75,9.18,9.18,0,0,1-6.48-2.57,8.79,8.79,0,0,1-2.73-6.39v-38h-14V335a23.4,23.4,0,0,0,1.87,8.88,23.76,23.76,0,0,0,5.1,7.47,23,23,0,0,0,16.18,6.55h.25a22.48,22.48,0,0,0,8.92-2,23.47,23.47,0,0,0,7.3-5,23.16,23.16,0,0,0,4.9-7.38,21.74,21.74,0,0,0,1.7-9V272.69Z"/><polygon class="cls-3" points="43.06 258 30.03 280.58 56.1 280.58 43.06 258"/><path class="cls-3" d="M186.68,272.69v61.93a9.6,9.6,0,0,1-.66,3.57,8.72,8.72,0,0,1-1.91,2.9,9.52,9.52,0,0,1-2.91,2,8.35,8.35,0,0,1-3.48.75,9.14,9.14,0,0,1-6.47-2.57,8.76,8.76,0,0,1-2.74-6.39v-38h-14V335a23.4,23.4,0,0,0,1.87,8.88,23.76,23.76,0,0,0,5.1,7.47,23,23,0,0,0,16.19,6.55h.24a22.53,22.53,0,0,0,8.93-2,23.59,23.59,0,0,0,7.3-5A23.3,23.3,0,0,0,199,343.5a21.74,21.74,0,0,0,1.7-9V272.69Z"/><polygon class="cls-3" points="193.86 258 180.82 280.58 206.9 280.58 193.86 258"/><path class="cls-3" d="M136.42,272.69v61.93a9.6,9.6,0,0,1-.67,3.57,8.56,8.56,0,0,1-1.91,2.9,9.48,9.48,0,0,1-2.9,2,8.39,8.39,0,0,1-3.49.75,9.17,9.17,0,0,1-6.47-2.57,8.8,8.8,0,0,1-2.74-6.39v-38h-14V335a23.21,23.21,0,0,0,1.87,8.88,23.76,23.76,0,0,0,5.1,7.47,23,23,0,0,0,16.18,6.55h.25a22.48,22.48,0,0,0,8.92-2,23.47,23.47,0,0,0,7.3-5,23.16,23.16,0,0,0,4.9-7.38,21.9,21.9,0,0,0,1.7-9V272.69Z"/><polygon class="cls-3" points="143.59 258 130.55 280.58 156.63 280.58 143.59 258"/><path class="cls-3" d="M287.21,272.69v61.93a9.6,9.6,0,0,1-.66,3.57,8.72,8.72,0,0,1-1.91,2.9,9.52,9.52,0,0,1-2.91,2,8.35,8.35,0,0,1-3.48.75,9.14,9.14,0,0,1-6.47-2.57,8.76,8.76,0,0,1-2.74-6.39v-38H255V335a23.4,23.4,0,0,0,1.87,8.88,23.76,23.76,0,0,0,5.1,7.47,23,23,0,0,0,16.18,6.55h.25a22.44,22.44,0,0,0,8.92-2,23.23,23.23,0,0,0,12.2-12.4,21.74,21.74,0,0,0,1.7-9V272.69Z"/><polygon class="cls-3" points="294.39 258 281.35 280.58 307.43 280.58 294.39 258"/><path class="cls-3" d="M236.94,272.69v61.93a9.6,9.6,0,0,1-.66,3.57,8.56,8.56,0,0,1-1.91,2.9,9.6,9.6,0,0,1-2.9,2,8.39,8.39,0,0,1-3.49.75,9.16,9.16,0,0,1-6.47-2.57,8.8,8.8,0,0,1-2.74-6.39v-38h-14V335a23.21,23.21,0,0,0,1.87,8.88,23.6,23.6,0,0,0,5.1,7.47,22.92,22.92,0,0,0,16.18,6.55h.25a22.48,22.48,0,0,0,8.92-2,23.47,23.47,0,0,0,7.3-5,23.16,23.16,0,0,0,4.9-7.38,21.9,21.9,0,0,0,1.7-9V272.69Z"/><polygon class="cls-3" points="244.12 258 231.08 280.58 257.16 280.58 244.12 258"/><path class="cls-3" d="M337.47,272.69v61.93a9.6,9.6,0,0,1-.66,3.57,8.56,8.56,0,0,1-1.91,2.9,9.6,9.6,0,0,1-2.9,2,8.39,8.39,0,0,1-3.49.75,9.16,9.16,0,0,1-6.47-2.57,8.76,8.76,0,0,1-2.74-6.39v-38h-14V335a23.21,23.21,0,0,0,1.86,8.88,23.63,23.63,0,0,0,5.11,7.47,22.92,22.92,0,0,0,16.18,6.55h.25a22.52,22.52,0,0,0,8.92-2,23.47,23.47,0,0,0,7.3-5,23.16,23.16,0,0,0,4.9-7.38,21.9,21.9,0,0,0,1.7-9V272.69Z"/><polygon class="cls-3" points="344.65 258 331.61 280.58 357.69 280.58 344.65 258"/><path class="cls-3" d="M86.15,172.69v61.93a9.6,9.6,0,0,1-.66,3.57,8.72,8.72,0,0,1-1.91,2.9,9.6,9.6,0,0,1-2.9,2,8,8,0,0,1-1.21.44,8.31,8.31,0,0,1-2.28.31,9.14,9.14,0,0,1-6.47-2.57A8.76,8.76,0,0,1,68,234.87v-38H54V235a24.09,24.09,0,0,0,.58,4.93c.14.63.31,1.26.5,1.87s.49,1.4.78,2.08a23.63,23.63,0,0,0,5.11,7.47,22.92,22.92,0,0,0,16.18,6.55h.25a21,21,0,0,0,2.11-.13,22,22,0,0,0,6.81-1.82,23.59,23.59,0,0,0,7.3-5,23.13,23.13,0,0,0,4.74-7l.15-.33a21.91,21.91,0,0,0,1.71-9V172.69Z"/><polygon class="cls-3" points="93.33 158 80.29 180.59 106.37 180.59 93.33 158"/><path class="cls-3" d="M35.89,172.69v61.93a9.41,9.41,0,0,1-.67,3.57,8.54,8.54,0,0,1-1.9,2.9,9.52,9.52,0,0,1-2.91,2,8.38,8.38,0,0,1-3.48.75,9.18,9.18,0,0,1-6.48-2.57,8.79,8.79,0,0,1-2.73-6.39v-38h-14V235a23.4,23.4,0,0,0,1.87,8.88,23.76,23.76,0,0,0,5.1,7.47,23,23,0,0,0,16.18,6.55h.25a22.48,22.48,0,0,0,8.92-2l.18-.09a23.25,23.25,0,0,0,12-12.31,22.4,22.4,0,0,0,1.7-9V172.69Z"/><polygon class="cls-3" points="43.06 158 30.03 180.59 56.1 180.59 43.06 158"/><path class="cls-3" d="M186.68,172.69v61.93a9.6,9.6,0,0,1-.66,3.57,8.72,8.72,0,0,1-1.91,2.9,9.52,9.52,0,0,1-2.91,2,8.35,8.35,0,0,1-3.48.75l-.65,0a9.11,9.11,0,0,1-5.82-2.55,9.87,9.87,0,0,1-1.16-1.38,8.47,8.47,0,0,1-1.58-5v-38h-14V235a23.4,23.4,0,0,0,1.87,8.88,22.09,22.09,0,0,0,1.87,3.49,24.17,24.17,0,0,0,3.23,4,23,23,0,0,0,7.39,4.85,22.65,22.65,0,0,0,8.23,1.69h.81a22.53,22.53,0,0,0,8.93-2,23.59,23.59,0,0,0,7.3-5A23.3,23.3,0,0,0,199,243.5a21.74,21.74,0,0,0,1.7-9V172.69Z"/><polygon class="cls-3" points="193.86 158 180.82 180.59 206.9 180.59 193.86 158"/><path class="cls-3" d="M136.42,172.69v61.93a9.6,9.6,0,0,1-.67,3.57,8.56,8.56,0,0,1-1.91,2.9,7.58,7.58,0,0,1-1,.87,8.66,8.66,0,0,1-1.88,1.12,8.39,8.39,0,0,1-3.49.75,9.17,9.17,0,0,1-6.47-2.57A9.7,9.7,0,0,1,119.9,240a8.54,8.54,0,0,1-1.66-5.12v-38h-14V235a23.18,23.18,0,0,0,.62,5,22.37,22.37,0,0,0,1.25,3.84,23.76,23.76,0,0,0,5.1,7.47,23,23,0,0,0,16.18,6.55h.25a22.48,22.48,0,0,0,8.92-2,23.47,23.47,0,0,0,7.3-5c.42-.42.82-.86,1.2-1.31a23.33,23.33,0,0,0,3.7-6.07,21.9,21.9,0,0,0,1.7-9V172.69Z"/><polygon class="cls-3" points="143.59 158 130.55 180.59 156.63 180.59 143.59 158"/><path class="cls-3" d="M287.21,172.69v61.93a9.6,9.6,0,0,1-.66,3.57,8.72,8.72,0,0,1-1.91,2.9,2.89,2.89,0,0,1-.32.29,9.22,9.22,0,0,1-2.59,1.7,8.35,8.35,0,0,1-3.48.75,9.14,9.14,0,0,1-6.47-2.57A9.7,9.7,0,0,1,270.7,240a8.47,8.47,0,0,1-1.66-5.12v-38H255V235a23.81,23.81,0,0,0,.62,5,22.37,22.37,0,0,0,1.25,3.84,23.76,23.76,0,0,0,5.1,7.47,23,23,0,0,0,16.18,6.55h.25a22.63,22.63,0,0,0,5.91-.86,21.64,21.64,0,0,0,3-1.09,5.24,5.24,0,0,0,.48-.23,23.06,23.06,0,0,0,6.83-4.79,23.3,23.3,0,0,0,4.89-7.38,20.2,20.2,0,0,0,1.2-3.85,21.57,21.57,0,0,0,.5-5.11V172.69Z"/><polygon class="cls-3" points="294.39 158 281.35 180.59 307.43 180.59 294.39 158"/><path class="cls-3" d="M236.94,172.69v61.93a9.6,9.6,0,0,1-.66,3.57,8.26,8.26,0,0,1-1,1.8,4.82,4.82,0,0,1-.38.51,7.55,7.55,0,0,1-.54.59,9.6,9.6,0,0,1-2.9,2,8.17,8.17,0,0,1-2.3.66,7.85,7.85,0,0,1-1.19.09,9,9,0,0,1-7.62-4,8.48,8.48,0,0,1-1.59-5v-38h-14V235a23.18,23.18,0,0,0,5.57,14.83c.44.52.91,1,1.4,1.52a22.92,22.92,0,0,0,16.18,6.55h.25l1,0a22,22,0,0,0,5.74-1.08,19.59,19.59,0,0,0,2.16-.83,23.47,23.47,0,0,0,7.3-5,23.16,23.16,0,0,0,4.9-7.38A20.8,20.8,0,0,0,250.4,240a22.37,22.37,0,0,0,.57-5.45V172.69Z"/><polygon class="cls-3" points="244.12 158 231.08 180.59 257.16 180.59 244.12 158"/><path class="cls-3" d="M337.47,172.69v61.93a9.6,9.6,0,0,1-.66,3.57,8.07,8.07,0,0,1-.76,1.46,7.91,7.91,0,0,1-1.15,1.44,9.6,9.6,0,0,1-2.9,2,8.39,8.39,0,0,1-3.49.75,9.16,9.16,0,0,1-6.47-2.57,9.71,9.71,0,0,1-1.32-1.61,8.48,8.48,0,0,1-1.42-4.78v-38h-14V235a24.08,24.08,0,0,0,.53,4.7,22.59,22.59,0,0,0,1.33,4.18,23.63,23.63,0,0,0,5.11,7.47,22.92,22.92,0,0,0,16.18,6.55h.25a22.52,22.52,0,0,0,8.92-2l.4-.19a23.24,23.24,0,0,0,11.8-12.21,21.9,21.9,0,0,0,1.7-9V172.69Z"/><polygon class="cls-3" points="344.65 158 331.61 180.59 357.69 180.59 344.65 158"/><path class="cls-3" d="M86.15,72.69v61.93a9.6,9.6,0,0,1-.66,3.57,8.72,8.72,0,0,1-1.91,2.9,9.6,9.6,0,0,1-2.9,2,8.39,8.39,0,0,1-3.49.75,9.14,9.14,0,0,1-6.47-2.57A8.76,8.76,0,0,1,68,134.87v-38H54V135a23.21,23.21,0,0,0,1.86,8.88,23.63,23.63,0,0,0,5.11,7.47,22.92,22.92,0,0,0,16.18,6.55h.25a22.52,22.52,0,0,0,8.92-1.95,23.59,23.59,0,0,0,7.3-5,23.3,23.3,0,0,0,4.89-7.38,21.91,21.91,0,0,0,1.71-9V72.69Z"/><polygon class="cls-3" points="93.33 58 80.29 80.58 106.37 80.58 93.33 58"/><path class="cls-3" d="M35.89,72.69v61.93a9.41,9.41,0,0,1-.67,3.57,8.54,8.54,0,0,1-1.9,2.9,9.52,9.52,0,0,1-2.91,2,8.38,8.38,0,0,1-3.48.75,9.18,9.18,0,0,1-6.48-2.57,8.79,8.79,0,0,1-2.73-6.39v-38h-14V135a23.4,23.4,0,0,0,1.87,8.88,23.76,23.76,0,0,0,5.1,7.47,23,23,0,0,0,16.18,6.55h.25A22.48,22.48,0,0,0,36,155.9a23.47,23.47,0,0,0,7.3-5,23.16,23.16,0,0,0,4.9-7.38,21.74,21.74,0,0,0,1.7-9V72.69Z"/><polygon class="cls-3" points="43.06 58 30.03 80.58 56.1 80.58 43.06 58"/><path class="cls-3" d="M186.68,72.69v61.93a9.6,9.6,0,0,1-.66,3.57,8.72,8.72,0,0,1-1.91,2.9,9.52,9.52,0,0,1-2.91,2,8.35,8.35,0,0,1-3.48.75,9.14,9.14,0,0,1-6.47-2.57,8.76,8.76,0,0,1-2.74-6.39v-38h-14V135a23.4,23.4,0,0,0,1.87,8.88,23.76,23.76,0,0,0,5.1,7.47,23,23,0,0,0,16.19,6.55h.24a22.53,22.53,0,0,0,8.93-1.95,23.59,23.59,0,0,0,7.3-5A23.3,23.3,0,0,0,199,143.5a21.74,21.74,0,0,0,1.7-9V72.69Z"/><polygon class="cls-3" points="193.86 58 180.82 80.58 206.9 80.58 193.86 58"/><path class="cls-3" d="M136.42,72.69v61.93a9.6,9.6,0,0,1-.67,3.57,8.56,8.56,0,0,1-1.91,2.9,9.48,9.48,0,0,1-2.9,2,8.39,8.39,0,0,1-3.49.75,9.17,9.17,0,0,1-6.47-2.57,8.8,8.8,0,0,1-2.74-6.39v-38h-14V135a23.21,23.21,0,0,0,1.87,8.88,23.76,23.76,0,0,0,5.1,7.47,23,23,0,0,0,16.18,6.55h.25a22.48,22.48,0,0,0,8.92-1.95,23.47,23.47,0,0,0,7.3-5,23.16,23.16,0,0,0,4.9-7.38,21.9,21.9,0,0,0,1.7-9V72.69Z"/><polygon class="cls-3" points="143.59 58 130.55 80.58 156.63 80.58 143.59 58"/><path class="cls-3" d="M287.21,72.69v61.93a9.6,9.6,0,0,1-.66,3.57,8.72,8.72,0,0,1-1.91,2.9,9.52,9.52,0,0,1-2.91,2,8.35,8.35,0,0,1-3.48.75,9.14,9.14,0,0,1-6.47-2.57,8.76,8.76,0,0,1-2.74-6.39v-38H255V135a23.4,23.4,0,0,0,1.87,8.88,23.76,23.76,0,0,0,5.1,7.47,23,23,0,0,0,16.18,6.55h.25a22.44,22.44,0,0,0,8.92-1.95,23.23,23.23,0,0,0,12.2-12.4,21.74,21.74,0,0,0,1.7-9V72.69Z"/><polygon class="cls-3" points="294.39 58 281.35 80.58 307.43 80.58 294.39 58"/><path class="cls-3" d="M236.94,72.69v61.93a9.6,9.6,0,0,1-.66,3.57,8.56,8.56,0,0,1-1.91,2.9,9.6,9.6,0,0,1-2.9,2,8.39,8.39,0,0,1-3.49.75,9.16,9.16,0,0,1-6.47-2.57,8.8,8.8,0,0,1-2.74-6.39v-38h-14V135a23.21,23.21,0,0,0,1.87,8.88,23.6,23.6,0,0,0,5.1,7.47,22.92,22.92,0,0,0,16.18,6.55h.25a22.48,22.48,0,0,0,8.92-1.95,23.47,23.47,0,0,0,7.3-5,23.16,23.16,0,0,0,4.9-7.38,21.9,21.9,0,0,0,1.7-9V72.69Z"/><polygon class="cls-3" points="244.12 58 231.08 80.58 257.16 80.58 244.12 58"/><path class="cls-3" d="M337.47,72.69v61.93a9.6,9.6,0,0,1-.66,3.57,8.56,8.56,0,0,1-1.91,2.9,9.6,9.6,0,0,1-2.9,2,8.39,8.39,0,0,1-3.49.75,9.16,9.16,0,0,1-6.47-2.57,8.76,8.76,0,0,1-2.74-6.39v-38h-14V135a23.21,23.21,0,0,0,1.86,8.88,23.63,23.63,0,0,0,5.11,7.47,22.92,22.92,0,0,0,16.18,6.55h.25a22.52,22.52,0,0,0,8.92-1.95,23.47,23.47,0,0,0,7.3-5,23.16,23.16,0,0,0,4.9-7.38,21.9,21.9,0,0,0,1.7-9V72.69Z"/><polygon class="cls-3" points="344.65 58 331.61 80.58 357.69 80.58 344.65 58"/><path class="cls-3" d="M86.15,0V34.62a9.6,9.6,0,0,1-.66,3.57,8.72,8.72,0,0,1-1.91,2.9,9.6,9.6,0,0,1-2.9,2,8.39,8.39,0,0,1-3.49.75,9.14,9.14,0,0,1-6.47-2.57A8.76,8.76,0,0,1,68,34.87V0H54V35a23.21,23.21,0,0,0,1.86,8.88,23.63,23.63,0,0,0,5.11,7.47,22.92,22.92,0,0,0,16.18,6.55h.25a22.52,22.52,0,0,0,8.92-2,23.59,23.59,0,0,0,7.3-5,23.3,23.3,0,0,0,4.89-7.38,21.91,21.91,0,0,0,1.71-9V0Z"/><path class="cls-3" d="M35.89,0V34.62a9.41,9.41,0,0,1-.67,3.57,8.54,8.54,0,0,1-1.9,2.9,9.52,9.52,0,0,1-2.91,2,8.38,8.38,0,0,1-3.48.75,9.18,9.18,0,0,1-6.48-2.57,8.79,8.79,0,0,1-2.73-6.39V0h-14V35a23.4,23.4,0,0,0,1.87,8.88,23.76,23.76,0,0,0,5.1,7.47,23,23,0,0,0,16.18,6.55h.25a22.48,22.48,0,0,0,8.92-2,23.47,23.47,0,0,0,7.3-5,23.16,23.16,0,0,0,4.9-7.38,21.74,21.74,0,0,0,1.7-9V0Z"/><path class="cls-3" d="M186.68,0V34.62a9.6,9.6,0,0,1-.66,3.57,8.72,8.72,0,0,1-1.91,2.9,9.52,9.52,0,0,1-2.91,2,8.35,8.35,0,0,1-3.48.75,9.14,9.14,0,0,1-6.47-2.57,8.76,8.76,0,0,1-2.74-6.39V0h-14V35a23.4,23.4,0,0,0,1.87,8.88,23.76,23.76,0,0,0,5.1,7.47,23,23,0,0,0,16.19,6.55h.24a22.53,22.53,0,0,0,8.93-2,23.59,23.59,0,0,0,7.3-5A23.3,23.3,0,0,0,199,43.5a21.74,21.74,0,0,0,1.7-9V0Z"/><path class="cls-3" d="M136.42,0V34.62a9.6,9.6,0,0,1-.67,3.57,8.56,8.56,0,0,1-1.91,2.9,9.48,9.48,0,0,1-2.9,2,8.39,8.39,0,0,1-3.49.75A9.17,9.17,0,0,1,121,41.26a8.8,8.8,0,0,1-2.74-6.39V0h-14V35a23.21,23.21,0,0,0,1.87,8.88,23.76,23.76,0,0,0,5.1,7.47,23,23,0,0,0,16.18,6.55h.25a22.48,22.48,0,0,0,8.92-2,23.47,23.47,0,0,0,7.3-5,23.16,23.16,0,0,0,4.9-7.38,21.9,21.9,0,0,0,1.7-9V0Z"/><path class="cls-3" d="M287.21,0V34.62a9.6,9.6,0,0,1-.66,3.57,8.72,8.72,0,0,1-1.91,2.9,9.52,9.52,0,0,1-2.91,2,8.35,8.35,0,0,1-3.48.75,9.14,9.14,0,0,1-6.47-2.57A8.76,8.76,0,0,1,269,34.87V0H255V35a23.4,23.4,0,0,0,1.87,8.88A23.76,23.76,0,0,0,262,51.3a23,23,0,0,0,16.18,6.55h.25a22.44,22.44,0,0,0,8.92-2,23.23,23.23,0,0,0,12.2-12.4,21.74,21.74,0,0,0,1.7-9V0Z"/><path class="cls-3" d="M236.94,0V34.62a9.6,9.6,0,0,1-.66,3.57,8.56,8.56,0,0,1-1.91,2.9,9.6,9.6,0,0,1-2.9,2,8.39,8.39,0,0,1-3.49.75,9.16,9.16,0,0,1-6.47-2.57,8.8,8.8,0,0,1-2.74-6.39V0h-14V35a23.21,23.21,0,0,0,1.87,8.88,23.6,23.6,0,0,0,5.1,7.47,22.92,22.92,0,0,0,16.18,6.55h.25a22.48,22.48,0,0,0,8.92-2,23.47,23.47,0,0,0,7.3-5,23.16,23.16,0,0,0,4.9-7.38,21.9,21.9,0,0,0,1.7-9V0Z"/><path class="cls-3" d="M337.47,0V34.62a9.6,9.6,0,0,1-.66,3.57,8.56,8.56,0,0,1-1.91,2.9,9.6,9.6,0,0,1-2.9,2,8.39,8.39,0,0,1-3.49.75A9.16,9.16,0,0,1,322,41.26a8.76,8.76,0,0,1-2.74-6.39V0h-14V35a23.21,23.21,0,0,0,1.86,8.88,23.63,23.63,0,0,0,5.11,7.47,22.92,22.92,0,0,0,16.18,6.55h.25a22.52,22.52,0,0,0,8.92-2,23.47,23.47,0,0,0,7.3-5,23.16,23.16,0,0,0,4.9-7.38,21.9,21.9,0,0,0,1.7-9V0Z"/></g><path class="cls-3" d="M150.11,261.23a34.56,34.56,0,0,0-7.25-10.87c-.27-.27-.54-.54-.82-.79a35.91,35.91,0,0,0-9.95-6.68c-.75-.34-1.51-.65-2.27-.93a33.09,33.09,0,0,0-10.89-2H100.08v81.86h18.85V308.8A33.23,33.23,0,0,0,132.09,306c.45-.2.89-.41,1.33-.63a34.56,34.56,0,0,0,9.44-6.79,33.45,33.45,0,0,0,4.58-5.78,34.63,34.63,0,0,0,2.67-5.09,32.17,32.17,0,0,0,2.08-7.08q.18-1,.3-2a35.49,35.49,0,0,0,.24-4.16A33.72,33.72,0,0,0,150.11,261.23Zm-20.58,24a16.16,16.16,0,0,1-4.74,3.36,14.92,14.92,0,0,1-5.86,1.39V258.84a14.75,14.75,0,0,1,5.86,1.4,16.13,16.13,0,0,1,4.74,3.35,15.55,15.55,0,0,1,3.18,4.87,13.28,13.28,0,0,1,.67,2h0a13.54,13.54,0,0,1,.41,2.2,16,16,0,0,1,.09,1.71,15.37,15.37,0,0,1-1.17,5.93c0,.09-.07.17-.12.26A15.33,15.33,0,0,1,129.53,285.2Z"/><path class="cls-3" d="M174.07,303V239.88H155.22v82H204V303Z"/><path class="cls-3" d="M207.32,239.88v82h18.85v-82Z"/><path class="cls-3" d="M231.91,240v81.86h18.85V290.07H275V271.22h-24.2V258.84h30.56V240Z"/><path class="cls-3" d="M284.81,239.65V258.5h15.61v63.35h18.85V258.5H335V239.65Z"/><path class="cls-3" d="M103.64,218.49H95.19v73.67a29.8,29.8,0,0,1-2.33,12.24,31.92,31.92,0,0,1-6.69,10.09,30.34,30.34,0,0,1-3.35,2.95,32.94,32.94,0,0,1-6.62,3.9A30.82,30.82,0,0,1,64.36,324h-.68a31.26,31.26,0,0,1-12-2.32c-.53-.21-1.05-.44-1.55-.69A30.37,30.37,0,0,1,46,318.65a31.34,31.34,0,0,1-4.42-3.6,32.56,32.56,0,0,1-7-10.2,31.75,31.75,0,0,1-2.55-12.12v-52H51.21v51.9a11.62,11.62,0,0,0,1.61,6A14.21,14.21,0,0,0,55,301.34a12.52,12.52,0,0,0,8.84,3.51,5.33,5.33,0,0,0,.57,0,11.34,11.34,0,0,0,4.2-1,13.31,13.31,0,0,0,4-2.72,11.46,11.46,0,0,0,2.6-4,12.91,12.91,0,0,0,.91-4.88V218.49H68l17.8-30.85Z"/></g></svg>